<svg width="24" height="24" viewBox="0 0 24 24" fill="none" xmlns="http://www.w3.org/2000/svg">
<path fill-rule="evenodd" clip-rule="evenodd" d="M21.2929 4.16869C21.6834 3.77817 21.6834 3.145 21.2929 2.75448L21.2455 2.70711C20.855 2.31658 20.2218 2.31658 19.8313 2.70711L12.7071 9.83131C12.3166 10.2218 11.6834 10.2218 11.2929 9.83131L4.16869 2.70711C3.77817 2.31658 3.145 2.31658 2.75448 2.70711L2.70711 2.75448C2.31658 3.145 2.31658 3.77817 2.70711 4.16869L9.83131 11.2929C10.2218 11.6834 10.2218 12.3166 9.83131 12.7071L2.70711 19.8313C2.31658 20.2218 2.31658 20.855 2.70711 21.2455L2.75452 21.2929C3.14503 21.6834 3.77816 21.6835 4.16869 21.293L11.2929 14.1696C11.6834 13.7791 12.3165 13.7791 12.7071 14.1696L19.8313 21.293C20.2218 21.6835 20.855 21.6834 21.2455 21.2929L21.2929 21.2455C21.6834 20.855 21.6834 20.2218 21.2929 19.8313L14.1687 12.7071C13.7782 12.3166 13.7782 11.6834 14.1687 11.2929L21.2929 4.16869Z" fill="#505050"/>
</svg>
